<?xml version="1.0" encoding="UTF-8" standalone="no"?>
<svg
   xmlns:dc="http://purl.org/dc/elements/1.1/"
   xmlns:cc="http://creativecommons.org/ns#"
   xmlns:rdf="http://www.w3.org/1999/02/22-rdf-syntax-ns#"
   xmlns:svg="http://www.w3.org/2000/svg"
   xmlns="http://www.w3.org/2000/svg"
   xmlns:sodipodi="http://sodipodi.sourceforge.net/DTD/sodipodi-0.dtd"
   xmlns:inkscape="http://www.inkscape.org/namespaces/inkscape"
   viewBox="0 0 2048 2048"
   version="1.1"
   id="svg10"
   sodipodi:docname="white_statch.svg"
   inkscape:version="1.0.1 (3bc2e813f5, 2020-09-07)">
  <metadata
     id="metadata14">
    <rdf:RDF>
      <cc:Work
         rdf:about="">
        <dc:format>image/svg+xml</dc:format>
        <dc:type
           rdf:resource="http://purl.org/dc/dcmitype/StillImage" />
      </cc:Work>
    </rdf:RDF>
  </metadata>
  <sodipodi:namedview
     pagecolor="#ffffff"
     bordercolor="#666666"
     borderopacity="1"
     objecttolerance="10"
     gridtolerance="10"
     guidetolerance="10"
     inkscape:pageopacity="0"
     inkscape:pageshadow="2"
     inkscape:window-width="1920"
     inkscape:window-height="1001"
     id="namedview12"
     showgrid="false"
     inkscape:zoom="0.40527344"
     inkscape:cx="1014.1301"
     inkscape:cy="1366.0481"
     inkscape:window-x="-9"
     inkscape:window-y="-9"
     inkscape:window-maximized="1"
     inkscape:current-layer="Art" />
  <defs
     id="defs4">
    <style
       id="style2">.cls-1{fill:#fff;}</style>
  </defs>
  <g
     id="white_statch"
     transform="translate(22.207229,458.9494)"
     style="fill:#1b553d;fill-opacity:1">
    <g
       id="Art"
       style="fill:#f1983d;fill-opacity:1">
      <path
         id="Body"
         class="cls-1"
         d="m 446.4847,858.50206 h 424 c -261.22,-76.1 -403.37,-245.87 -426.68,-519.8 15.34,-1.34 25.07,-2.93 34.8,-2.94 163.87,-0.13 327.73,-1.12 491.58,0.21 256.66,2.08 465.13,176.19 514,427.31 57.09,293.53994 -160.68,583.66994 -458.89,611.36994 -286.1,26.56 -529.71,-162.79 -573.73,-446.43994 -3.27,-21 -3.2,-42.59 -5.08,-69.71 z"
         style="fill:#f8983d;fill-opacity:0.86000001" />
      <path
         id="Head"
         class="cls-1"
         d="m 1304.9847,338.08206 c 67.84,0 136.22,-5.44 203.31,1.49 70.59,7.28 129.91,72.7 142.44,142.38 1.93,10.76 1.64,21.92 2.8,39.31 -72.54,-2.37 -142.26,1.6 -209.88,-8.44 -84.13,-12.49 -147.04,-98.71 -138.67,-174.74 z m 212.4,115 c 10.34,-12.72 21.8,-20.67 21.53,-28.21 -0.27,-7.78 -11.94,-15.17 -18.63,-22.73 -7.55,6.75 -20,12.72 -21.24,20.46 -1.16,7.39 9.4,16.61 18.34,30.49 z"
         style="fill:#f8983d;fill-opacity:0.86000001" />
    </g>
  </g>
</svg>
